<svg xmlns="http://www.w3.org/2000/svg" width="512" height="512" viewBox="0 0 512 512">
  <defs>
    <radialGradient id="g1" cx="30%" cy="25%" r="80%">
      <stop offset="0%" stop-color="#4f7cff"/>
      <stop offset="55%" stop-color="#2f49c7"/>
      <stop offset="100%" stop-color="#7c3aed"/>
    </radialGradient>
    <linearGradient id="shine" x1="0" y1="0" x2="1" y2="1">
      <stop offset="0%" stop-color="#ffffff" stop-opacity="0.28"/>
      <stop offset="60%" stop-color="#ffffff" stop-opacity="0"/>
    </linearGradient>
  </defs>

  <!-- Circular badge background (StoreLink-style) -->
  <circle cx="256" cy="256" r="232" fill="url(#g1)"/>
  <circle cx="256" cy="256" r="232" fill="none" stroke="#0b1a5a" stroke-opacity="0.35" stroke-width="18"/>
  <circle cx="256" cy="256" r="214" fill="none" stroke="#000000" stroke-opacity="0.12" stroke-width="6"/>
  <path d="M80 140 C140 70 240 58 340 92 C392 110 430 142 452 190 C360 148 220 160 140 214 C112 234 92 258 80 286 Z" fill="url(#shine)"/>

  <!-- Storefront glyph (white) -->
  <g fill="none" stroke="#ffffff" stroke-width="26" stroke-linecap="round" stroke-linejoin="round">
    <!-- Roof / top -->
    <path d="M176 224 L256 160 L336 224"/>
    <!-- Awning bar -->
    <path d="M168 244 H344"/>
    <!-- Body -->
    <path d="M192 244 V356 H320 V244"/>
    <!-- Awning scallops (simple) -->
    <path d="M192 244 C200 270 224 270 232 244 C240 270 264 270 272 244 C280 270 304 270 312 244"/>
    <!-- Door arch -->
    <path d="M246 356 V312 C246 294 266 294 266 312 V356"/>
  </g>
</svg>
